<mxfile host="app.diagrams.net" agent="Mozilla/5.0 (Macintosh; Intel Mac OS X 10_15_7) AppleWebKit/537.36 (KHTML, like Gecko) Chrome/132.0.0.0 Safari/537.36" version="26.0.9">
  <diagram name="Page-1" id="Hm0FOieZo1bQabxKpgn-">
    <mxGraphModel dx="984" dy="594" grid="1" gridSize="10" guides="1" tooltips="1" connect="1" arrows="1" fold="1" page="1" pageScale="1" pageWidth="850" pageHeight="1100" math="0" shadow="0">
      <root>
        <mxCell id="0" />
        <mxCell id="1" parent="0" />
        <mxCell id="2QoLX_qyOSyjQX9BgWTQ-1" value="Homepage&lt;div&gt;Navigation Title: Website Logo (top-left)&lt;/div&gt;&lt;div&gt;File Name: index.html&lt;/div&gt;" style="rounded=0;whiteSpace=wrap;html=1;fillColor=#f5f5f5;fontColor=#333333;strokeColor=#666666;fontSize=20;" vertex="1" parent="1">
          <mxGeometry x="170" y="20" width="470" height="90" as="geometry" />
        </mxCell>
        <mxCell id="2QoLX_qyOSyjQX9BgWTQ-2" value="About&lt;div&gt;Navigation Title: About Us&lt;/div&gt;&lt;div&gt;File Name:&lt;/div&gt;&lt;div&gt;about.html&lt;/div&gt;" style="rounded=0;whiteSpace=wrap;html=1;" vertex="1" parent="1">
          <mxGeometry x="20" y="160" width="120" height="90" as="geometry" />
        </mxCell>
        <mxCell id="2QoLX_qyOSyjQX9BgWTQ-3" value="FAQ&lt;div&gt;Navigation Title: FAQ&lt;/div&gt;&lt;div&gt;File Name:&lt;/div&gt;&lt;div&gt;faq.html&lt;/div&gt;" style="rounded=0;whiteSpace=wrap;html=1;" vertex="1" parent="1">
          <mxGeometry x="160" y="160" width="120" height="90" as="geometry" />
        </mxCell>
        <mxCell id="2QoLX_qyOSyjQX9BgWTQ-4" value="Partnerships&lt;div&gt;Navigation Title:&lt;/div&gt;&lt;div&gt;Partnerships&lt;/div&gt;&lt;div&gt;File Name:&lt;/div&gt;&lt;div&gt;partnerships.html&lt;/div&gt;" style="rounded=0;whiteSpace=wrap;html=1;" vertex="1" parent="1">
          <mxGeometry x="300" y="160" width="120" height="90" as="geometry" />
        </mxCell>
        <mxCell id="2QoLX_qyOSyjQX9BgWTQ-5" value="Contact&lt;div&gt;Navigation Title: Contact Us&lt;/div&gt;&lt;div&gt;File Name: contact.html&lt;/div&gt;" style="rounded=0;whiteSpace=wrap;html=1;" vertex="1" parent="1">
          <mxGeometry x="580" y="160" width="120" height="90" as="geometry" />
        </mxCell>
        <mxCell id="2QoLX_qyOSyjQX9BgWTQ-6" value="Resources&lt;br&gt;&lt;div&gt;Navigation Title: Resources&lt;/div&gt;&lt;div&gt;File Name: resources.html&lt;/div&gt;" style="rounded=0;whiteSpace=wrap;html=1;" vertex="1" parent="1">
          <mxGeometry x="440" y="160" width="120" height="90" as="geometry" />
        </mxCell>
        <mxCell id="2QoLX_qyOSyjQX9BgWTQ-7" value="Login&lt;div&gt;Navigation Title: Member Login&lt;/div&gt;&lt;div&gt;File Name: login.html&lt;/div&gt;" style="rounded=0;whiteSpace=wrap;html=1;" vertex="1" parent="1">
          <mxGeometry x="720" y="160" width="120" height="90" as="geometry" />
        </mxCell>
        <mxCell id="2QoLX_qyOSyjQX9BgWTQ-10" value="" style="endArrow=classic;html=1;rounded=0;entryX=0.5;entryY=0;entryDx=0;entryDy=0;" edge="1" parent="1" target="2QoLX_qyOSyjQX9BgWTQ-2">
          <mxGeometry width="50" height="50" relative="1" as="geometry">
            <mxPoint x="400" y="140" as="sourcePoint" />
            <mxPoint x="450" y="320" as="targetPoint" />
            <Array as="points">
              <mxPoint x="80" y="140" />
            </Array>
          </mxGeometry>
        </mxCell>
        <mxCell id="2QoLX_qyOSyjQX9BgWTQ-11" value="" style="endArrow=none;html=1;rounded=0;entryX=0.49;entryY=0.988;entryDx=0;entryDy=0;entryPerimeter=0;" edge="1" parent="1" target="2QoLX_qyOSyjQX9BgWTQ-1">
          <mxGeometry width="50" height="50" relative="1" as="geometry">
            <mxPoint x="400" y="140" as="sourcePoint" />
            <mxPoint x="350" y="210" as="targetPoint" />
          </mxGeometry>
        </mxCell>
        <mxCell id="2QoLX_qyOSyjQX9BgWTQ-12" value="" style="endArrow=classic;html=1;rounded=0;entryX=0.5;entryY=0;entryDx=0;entryDy=0;" edge="1" parent="1" target="2QoLX_qyOSyjQX9BgWTQ-3">
          <mxGeometry width="50" height="50" relative="1" as="geometry">
            <mxPoint x="220" y="140" as="sourcePoint" />
            <mxPoint x="330" y="180" as="targetPoint" />
          </mxGeometry>
        </mxCell>
        <mxCell id="2QoLX_qyOSyjQX9BgWTQ-14" value="" style="endArrow=classic;html=1;rounded=0;entryX=0.5;entryY=0;entryDx=0;entryDy=0;" edge="1" parent="1" target="2QoLX_qyOSyjQX9BgWTQ-7">
          <mxGeometry width="50" height="50" relative="1" as="geometry">
            <mxPoint x="400" y="140" as="sourcePoint" />
            <mxPoint x="700" y="140" as="targetPoint" />
            <Array as="points">
              <mxPoint x="780" y="140" />
            </Array>
          </mxGeometry>
        </mxCell>
        <mxCell id="2QoLX_qyOSyjQX9BgWTQ-15" value="" style="endArrow=classic;html=1;rounded=0;entryX=0.5;entryY=0;entryDx=0;entryDy=0;" edge="1" parent="1" target="2QoLX_qyOSyjQX9BgWTQ-6">
          <mxGeometry width="50" height="50" relative="1" as="geometry">
            <mxPoint x="500" y="140" as="sourcePoint" />
            <mxPoint x="550" y="180" as="targetPoint" />
          </mxGeometry>
        </mxCell>
        <mxCell id="2QoLX_qyOSyjQX9BgWTQ-17" value="" style="endArrow=classic;html=1;rounded=0;entryX=0.5;entryY=0;entryDx=0;entryDy=0;" edge="1" parent="1" target="2QoLX_qyOSyjQX9BgWTQ-4">
          <mxGeometry width="50" height="50" relative="1" as="geometry">
            <mxPoint x="360" y="140" as="sourcePoint" />
            <mxPoint x="390" y="200" as="targetPoint" />
          </mxGeometry>
        </mxCell>
        <mxCell id="2QoLX_qyOSyjQX9BgWTQ-18" value="" style="endArrow=classic;html=1;rounded=0;entryX=0.5;entryY=0;entryDx=0;entryDy=0;" edge="1" parent="1" target="2QoLX_qyOSyjQX9BgWTQ-5">
          <mxGeometry width="50" height="50" relative="1" as="geometry">
            <mxPoint x="640" y="140" as="sourcePoint" />
            <mxPoint x="660" y="200" as="targetPoint" />
          </mxGeometry>
        </mxCell>
        <mxCell id="2QoLX_qyOSyjQX9BgWTQ-21" value="&lt;font style=&quot;font-size: 10px;&quot;&gt;Instagram&lt;/font&gt;&lt;div&gt;&lt;font style=&quot;font-size: 10px;&quot;&gt;Navigation Title: Instagram Logo&lt;/font&gt;&lt;/div&gt;&lt;div&gt;&lt;font style=&quot;font-size: 10px;&quot;&gt;Redirect URL:&amp;nbsp; https://www.instagram.com/gsn&lt;/font&gt;&lt;/div&gt;&lt;div&gt;&lt;font style=&quot;font-size: 10px;&quot;&gt;Note: same concept for twitter, linkedin, and X&lt;/font&gt;&lt;/div&gt;" style="rounded=0;whiteSpace=wrap;html=1;" vertex="1" parent="1">
          <mxGeometry x="20" y="320" width="120" height="100" as="geometry" />
        </mxCell>
        <mxCell id="2QoLX_qyOSyjQX9BgWTQ-22" value="" style="endArrow=classic;html=1;rounded=0;exitX=0.5;exitY=1;exitDx=0;exitDy=0;entryX=0.5;entryY=0;entryDx=0;entryDy=0;" edge="1" parent="1" source="2QoLX_qyOSyjQX9BgWTQ-2" target="2QoLX_qyOSyjQX9BgWTQ-21">
          <mxGeometry width="50" height="50" relative="1" as="geometry">
            <mxPoint x="400" y="270" as="sourcePoint" />
            <mxPoint x="80" y="310" as="targetPoint" />
          </mxGeometry>
        </mxCell>
        <mxCell id="2QoLX_qyOSyjQX9BgWTQ-28" value="&lt;font style=&quot;font-size: 10px;&quot;&gt;Instagram&lt;/font&gt;&lt;div&gt;&lt;font style=&quot;font-size: 10px;&quot;&gt;Navigation Title: Instagram Logo&lt;/font&gt;&lt;/div&gt;&lt;div&gt;&lt;font style=&quot;font-size: 10px;&quot;&gt;Redirect URL:&amp;nbsp; https://www.instagram.com/gsn&lt;/font&gt;&lt;/div&gt;&lt;div&gt;&lt;font style=&quot;font-size: 10px;&quot;&gt;Note: same concept for twitter, linkedin, and X&lt;/font&gt;&lt;/div&gt;" style="rounded=0;whiteSpace=wrap;html=1;" vertex="1" parent="1">
          <mxGeometry x="160" y="320" width="120" height="100" as="geometry" />
        </mxCell>
        <mxCell id="2QoLX_qyOSyjQX9BgWTQ-29" value="&lt;font style=&quot;font-size: 10px;&quot;&gt;Instagram&lt;/font&gt;&lt;div&gt;&lt;font style=&quot;font-size: 10px;&quot;&gt;Navigation Title: Instagram Logo&lt;/font&gt;&lt;/div&gt;&lt;div&gt;&lt;font style=&quot;font-size: 10px;&quot;&gt;Redirect URL:&amp;nbsp; https://www.instagram.com/gsn&lt;/font&gt;&lt;/div&gt;&lt;div&gt;&lt;font style=&quot;font-size: 10px;&quot;&gt;Note: same concept for twitter, linkedin, and X&lt;/font&gt;&lt;/div&gt;" style="rounded=0;whiteSpace=wrap;html=1;" vertex="1" parent="1">
          <mxGeometry x="300" y="320" width="120" height="100" as="geometry" />
        </mxCell>
        <mxCell id="2QoLX_qyOSyjQX9BgWTQ-30" value="&lt;font style=&quot;font-size: 10px;&quot;&gt;Instagram&lt;/font&gt;&lt;div&gt;&lt;font style=&quot;font-size: 10px;&quot;&gt;Navigation Title: Instagram Logo&lt;/font&gt;&lt;/div&gt;&lt;div&gt;&lt;font style=&quot;font-size: 10px;&quot;&gt;Redirect URL:&amp;nbsp; https://www.instagram.com/gsn&lt;/font&gt;&lt;/div&gt;&lt;div&gt;&lt;font style=&quot;font-size: 10px;&quot;&gt;Note: same concept for twitter, linkedin, and X&lt;/font&gt;&lt;/div&gt;" style="rounded=0;whiteSpace=wrap;html=1;" vertex="1" parent="1">
          <mxGeometry x="440" y="320" width="120" height="100" as="geometry" />
        </mxCell>
        <mxCell id="2QoLX_qyOSyjQX9BgWTQ-31" value="&lt;font style=&quot;font-size: 10px;&quot;&gt;Instagram&lt;/font&gt;&lt;div&gt;&lt;font style=&quot;font-size: 10px;&quot;&gt;Navigation Title: Instagram Logo&lt;/font&gt;&lt;/div&gt;&lt;div&gt;&lt;font style=&quot;font-size: 10px;&quot;&gt;Redirect URL:&amp;nbsp; https://www.instagram.com/gsn&lt;/font&gt;&lt;/div&gt;&lt;div&gt;&lt;font style=&quot;font-size: 10px;&quot;&gt;Note: same concept for twitter, linkedin, and X&lt;/font&gt;&lt;/div&gt;" style="rounded=0;whiteSpace=wrap;html=1;" vertex="1" parent="1">
          <mxGeometry x="580" y="320" width="120" height="100" as="geometry" />
        </mxCell>
        <mxCell id="2QoLX_qyOSyjQX9BgWTQ-32" value="&lt;font style=&quot;font-size: 10px;&quot;&gt;Instagram&lt;/font&gt;&lt;div&gt;&lt;font style=&quot;font-size: 10px;&quot;&gt;Navigation Title: Instagram Logo&lt;/font&gt;&lt;/div&gt;&lt;div&gt;&lt;font style=&quot;font-size: 10px;&quot;&gt;Redirect URL:&amp;nbsp; https://www.instagram.com/gsn&lt;/font&gt;&lt;/div&gt;&lt;div&gt;&lt;font style=&quot;font-size: 10px;&quot;&gt;Note: same concept for twitter, linkedin, and X&lt;/font&gt;&lt;/div&gt;" style="rounded=0;whiteSpace=wrap;html=1;" vertex="1" parent="1">
          <mxGeometry x="720" y="320" width="120" height="100" as="geometry" />
        </mxCell>
        <mxCell id="2QoLX_qyOSyjQX9BgWTQ-33" value="" style="endArrow=classic;html=1;rounded=0;exitX=0.5;exitY=1;exitDx=0;exitDy=0;entryX=0.5;entryY=0;entryDx=0;entryDy=0;" edge="1" parent="1">
          <mxGeometry width="50" height="50" relative="1" as="geometry">
            <mxPoint x="219.6" y="250" as="sourcePoint" />
            <mxPoint x="219.6" y="320" as="targetPoint" />
          </mxGeometry>
        </mxCell>
        <mxCell id="2QoLX_qyOSyjQX9BgWTQ-34" value="" style="endArrow=classic;html=1;rounded=0;exitX=0.5;exitY=1;exitDx=0;exitDy=0;entryX=0.5;entryY=0;entryDx=0;entryDy=0;" edge="1" parent="1">
          <mxGeometry width="50" height="50" relative="1" as="geometry">
            <mxPoint x="359.6" y="250" as="sourcePoint" />
            <mxPoint x="359.6" y="320" as="targetPoint" />
          </mxGeometry>
        </mxCell>
        <mxCell id="2QoLX_qyOSyjQX9BgWTQ-35" value="" style="endArrow=classic;html=1;rounded=0;exitX=0.5;exitY=1;exitDx=0;exitDy=0;entryX=0.5;entryY=0;entryDx=0;entryDy=0;" edge="1" parent="1">
          <mxGeometry width="50" height="50" relative="1" as="geometry">
            <mxPoint x="499.6" y="250" as="sourcePoint" />
            <mxPoint x="499.6" y="320" as="targetPoint" />
          </mxGeometry>
        </mxCell>
        <mxCell id="2QoLX_qyOSyjQX9BgWTQ-36" value="" style="endArrow=classic;html=1;rounded=0;exitX=0.5;exitY=1;exitDx=0;exitDy=0;entryX=0.5;entryY=0;entryDx=0;entryDy=0;" edge="1" parent="1">
          <mxGeometry width="50" height="50" relative="1" as="geometry">
            <mxPoint x="639.6" y="250" as="sourcePoint" />
            <mxPoint x="639.6" y="320" as="targetPoint" />
          </mxGeometry>
        </mxCell>
        <mxCell id="2QoLX_qyOSyjQX9BgWTQ-37" value="" style="endArrow=classic;html=1;rounded=0;exitX=0.5;exitY=1;exitDx=0;exitDy=0;entryX=0.5;entryY=0;entryDx=0;entryDy=0;" edge="1" parent="1">
          <mxGeometry width="50" height="50" relative="1" as="geometry">
            <mxPoint x="779.6" y="250" as="sourcePoint" />
            <mxPoint x="779.6" y="320" as="targetPoint" />
          </mxGeometry>
        </mxCell>
      </root>
    </mxGraphModel>
  </diagram>
</mxfile>
